<svg width="27" height="23" viewBox="0 0 27 23" fill="none" xmlns="http://www.w3.org/2000/svg">
<path d="M18.25 17.875L16.8125 12.4375L21.1875 8.8125L15.5625 8.5L13.5 3.25L11.4375 8.5L5.75 8.8125L10.1875 12.4375L8.75 17.875L13.5 14.8125L18.25 17.875ZM24.9375 9.625C24.4375 10.1667 24.1875 10.7917 24.1875 11.5C24.1875 12.2083 24.4375 12.8333 24.9375 13.375C25.4792 13.9167 26.1042 14.1875 26.8125 14.1875V19.5C26.8125 20.2083 26.5417 20.8333 26 21.375C25.5 21.9167 24.8958 22.1875 24.1875 22.1875H2.8125C2.10417 22.1875 1.47917 21.9167 0.9375 21.375C0.4375 20.8333 0.1875 20.2083 0.1875 19.5V14.1875C0.9375 14.1875 1.5625 13.9375 2.0625 13.4375C2.5625 12.8958 2.8125 12.25 2.8125 11.5C2.8125 10.7917 2.54167 10.1667 2 9.625C1.5 9.08333 0.895833 8.8125 0.1875 8.8125V3.5C0.1875 2.79167 0.4375 2.16667 0.9375 1.625C1.47917 1.08333 2.10417 0.8125 2.8125 0.8125H24.1875C24.8958 0.8125 25.5 1.08333 26 1.625C26.5417 2.16667 26.8125 2.79167 26.8125 3.5V8.8125C26.1042 8.8125 25.4792 9.08333 24.9375 9.625Z" fill="white"/>
</svg>
